<svg width="24" height="24" fill="none" version="1.1" xmlns="http://www.w3.org/2000/svg"><defs><linearGradient id="a" x1="123.3" x2="8.2605" y1="120.17" y2="13.466" gradientTransform="matrix(.18333 0 0 .18333 -.167 -.167)" gradientUnits="userSpaceOnUse"><stop stop-color="#0257a9" offset="0"/><stop stop-color="#4c92d6" offset="1"/></linearGradient><filter id="b" x="-.069375" y="-.069375" width="1.1388" height="1.1388"><feGaussianBlur result="coloredBlur" stdDeviation="2"/><feMerge><feMergeNode in="coloredBlur"/><feMergeNode in="SourceGraphic"/></feMerge></filter><linearGradient id="c" x1="51" x2="77" y1="51" y2="77" gradientTransform="matrix(1.7117 0 0 1.7117 -45.547 -45.547)" gradientUnits="userSpaceOnUse"><stop stop-color="#068fd4" offset="0"/><stop stop-color="#0891b2" offset="1"/></linearGradient></defs><rect x="1.4307" y="2.1239" width="21.138" height="19.752" rx="2.7062" fill="url(#a)" opacity=".9" stroke="#808080" stroke-opacity=".2" stroke-width=".92882" vector-effect="non-scaling-stroke" style="-inkscape-stroke:hairline"/><g transform="matrix(.15782 0 0 .15782 -.138 -.12499)" clip-path="url(#b)" stroke-width=".87791"><g transform="matrix(1.377 0 0 1.377 -10.026 -11.28)" filter="url(#b)" stroke="#fff"><circle cx="64" cy="64" r="20.54" fill="url(#c)" stroke-width="3.4233"/><g fill="#10b981" stroke-width="1.5"><circle cx="64" cy="32" r="8"/><circle cx="96" cy="64" r="8"/><circle cx="64" cy="96" r="8"/><circle cx="32" cy="64" r="8"/></g><g fill="#8b5cf6" stroke-width="1"><circle cx="88" cy="40" r="6"/><circle cx="88" cy="88" r="6"/><circle cx="40" cy="88" r="6"/><circle cx="40" cy="40" r="6"/></g></g><g transform="matrix(1.377 0 0 1.377 -10.026 -11.28)" fill="none" opacity=".9" stroke="#fbbf24" stroke-width="1.5"><circle cx="64" cy="64" r="30" opacity=".5" stroke-dasharray="2, 4"/></g></g><path d="m11.683 11.617a0.41398 0.41398 0 0 1 0.36581-0.20049 0.50631 0.50631 0 0 1 0.21932 0.0585 0.33798 0.33798 0 0 1 0.20199 0.22665 1.6972 1.6972 0 0 0 0.03667 0.36298 1.3973 1.3973 0 0 0 0.41398 0.61897c0.09066 0.10533 0.21216 0.17832 0.30282 0.29248a2.455 2.455 0 0 1-0.41398-0.04383 1.3403 1.3403 0 0 1-0.47547-0.16832 1.1266 1.1266 0 0 1-0.23415-0.16082 1.3563 1.3563 0 0 1-0.29265-0.32632 1.0008 1.0008 0 0 1-0.16832-0.47114 0.47397 0.47397 0 0 1 0.044-0.18866zm-0.019-1.0901a0.6993 0.6993 0 0 1 0.5603 0.0395 0.40964 0.40964 0 0 1 0.14632 0.17266 0.30865 0.30865 0 0 1-0.01467 0.26632 0.5383 0.5383 0 0 1-0.25315 0.25015 0.5633 0.5633 0 0 1-0.25599 0.06883 0.5853 0.5853 0 0 1-0.29265-0.03666 0.40531 0.40531 0 0 1-0.24282-0.24865 0.31898 0.31898 0 0 1 0.041-0.25599 0.59997 0.59997 0 0 1 0.31165-0.25615zm-0.55597 3.2993a1.3446 1.3446 0 0 1-0.71263 0.39798c-0.09216 0-0.17999 0.01167-0.26765 0.01467a0.86329 0.86329 0 0 1-0.29265-0.07616 1.2436 1.2436 0 0 1-0.38198-0.34831 1.7031 1.7031 0 0 1-0.29248-0.68013 2.1449 2.1449 0 0 1 0-0.25765 1.0241 1.0241 0 0 1 0.12866 0.22832 1.1836 1.1836 0 0 0 0.21499 0.26332 0.68913 0.68913 0 0 0 0.45214 0.19332 0.59547 0.59547 0 0 0 0.19766-0.025 0.98611 0.98611 0 0 0 0.46964-0.28532c0.0395-0.04833 0.08766-0.095 0.12433-0.14632 0.03667-0.05116 0.0805-0.12433 0.10966-0.19016a1.4633 1.4633 0 0 0 0.16832-0.6263c-0.0073-0.08766-0.0073-0.16832-0.01467-0.25599-0.025-0.0585-0.01017-0.13616-0.07316-0.16832a0.20632 0.20632 0 0 0-0.12433 0.03216 1.8157 1.8157 0 0 0-0.26332 0.24582c-0.09949 0.0805-0.16832 0.19032-0.26332 0.27798-0.05566 0.041-0.08933 0.09516-0.14632 0.13616a1.9021 1.9021 0 0 1-0.31465 0.25599 0.5223 0.5223 0 0 1-0.29265 0.07616 0.45797 0.45797 0 0 1-0.30865-0.17999 1.4339 1.4339 0 0 1-0.21949-0.49447c-0.022-0.09083-0.01017-0.18582-0.025-0.27798a3.2613 3.2613 0 0 1 0.16399-0.91895 1.3549 1.3549 0 0 1 0.14632-0.29265c0.022-0.02483 0.03217-0.05833 0.0615-0.06583a1.3168 1.3168 0 0 1-0.03216 0.17999 0.70963 0.70963 0 0 0 0 0.20049 2.2137 2.2137 0 0 0 0 0.31165c0.02633 0.10233 0.02917 0.21216 0.06283 0.31448a0.85595 0.85595 0 0 0 0.0805 0.21366c0.025 0.0395 0.0395 0.08783 0.0805 0.11266a0.31748 0.31748 0 0 0 0.14632 0.063 0.76662 0.76662 0 0 0 0.12133-0.03666 1.1704 1.1704 0 0 0 0.23715-0.21949 1.1894 1.1894 0 0 1 0.20032-0.17699 0.52964 0.52964 0 0 1 0.37315-0.10666 1.2026 1.2026 0 0 1 0.50481 0.17982 1.1091 1.1091 0 0 1 0.20182 0.16099 1.0241 1.0241 0 0 1 0.27498 0.56764 0.45214 0.45214 0 0 1 0.01033 0.19749 1.6737 1.6737 0 0 1-0.19449 0.75063 2.1582 2.1582 0 0 1-0.20499 0.30715 0.31598 0.31598 0 0 1-0.10666 0.14783zm2.0937-3.5305a1.3476 1.3476 0 0 1 0.70513-0.39948c0.09216 0 0.17999-0.010166 0.26782-0.014499a0.86612 0.86612 0 0 1 0.29248 0.077496 1.2041 1.2041 0 0 1 0.38198 0.34665 1.6416 1.6416 0 0 1 0.29265 0.68196 2.1127 2.1127 0 0 1 0 0.25599 1.2289 1.2289 0 0 1-0.12883-0.22665 1.0636 1.0636 0 0 0-0.21949-0.26349 0.68763 0.68763 0 0 0-0.44764-0.19466 0.6013 0.6013 0 0 0-0.19749 0.02633 0.96411 0.96411 0 0 0-0.46831 0.29265c-0.041 0.04683-0.08766 0.09499-0.12433 0.14632a1.1833 1.1833 0 0 0-0.11116 0.19166 1.4836 1.4836 0 0 0-0.16832 0.6263c0 0.08766 0 0.16832 0.01467 0.25599 0.02633 0.0585 0.01167 0.13466 0.07316 0.16832a0.20632 0.20632 0 0 0 0.12433-0.03366 1.8216 1.8216 0 0 0 0.27215-0.25615c0.09799-0.0805 0.16832-0.18999 0.26332-0.27932 0.05416-0.03966 0.08783-0.09516 0.13899-0.13466a1.9562 1.9562 0 0 1 0.31465-0.25599 0.51797 0.51797 0 0 1 0.29265-0.07766 0.45947 0.45947 0 0 1 0.30715 0.18299 1.4193 1.4193 0 0 1 0.21949 0.49447c0.022 0.09216 0.01167 0.18282 0.02633 0.27798a3.2627 3.2627 0 0 1-0.16532 0.92028 1.2494 1.2494 0 0 1-0.14632 0.29265c-0.02183 0.02633-0.03367 0.0585-0.06283 0.06583a1.2876 1.2876 0 0 1 0.03366-0.17849 0.77829 0.77829 0 0 0 0-0.20199 2.2165 2.2165 0 0 0 0-0.31165c-0.025-0.10233-0.02933-0.21216-0.0615-0.31448a0.90562 0.90562 0 0 0-0.08049-0.21216c-0.02633-0.041-0.041-0.08783-0.08183-0.11416a0.24282 0.24282 0 0 0-0.14633-0.0615 0.75063 0.75063 0 0 0-0.11999 0.03666 1.0051 1.0051 0 0 0-0.23849 0.21949 1.2598 1.2598 0 0 1-0.20199 0.17266 0.52664 0.52664 0 0 1-0.37298 0.10533 1.2494 1.2494 0 0 1-0.5093-0.17849 1.0593 1.0593 0 0 1-0.20032-0.16249 0.98328 0.98328 0 0 1-0.27215-0.56764 0.45214 0.45214 0 0 1-0.01033-0.19749 1.6796 1.6796 0 0 1 0.19466-0.75063 2.341 2.341 0 0 1 0.20482-0.30732 0.28382 0.28382 0 0 1 0.11549-0.14333z" fill="#fff" stroke-width=".16666"/></svg>
